#define close_pressed_width 14
#define close_pressed_height 14
static unsigned char close_pressed_bits[] = {
   0x00, 0x00, 0xfe, 0x1f, 0xfe, 0x1f, 0xfe, 0x1f, 0xce, 0x1c, 0x0e, 0x1c,
   0x1e, 0x1e, 0x1e, 0x1e, 0x0e, 0x1c, 0xce, 0x1c, 0xfe, 0x1f, 0xfe, 0x1f,
   0xfe, 0x1f, 0x00, 0x00 };
