#define desk_pressed_width 14
#define desk_pressed_height 14
static unsigned char desk_pressed_bits[] = {
   0x00, 0x00, 0xfe, 0x1f, 0xfe, 0x1f, 0x3e, 0x1f, 0x3e, 0x1f, 0x3e, 0x1f,
   0x06, 0x18, 0x06, 0x18, 0x3e, 0x1f, 0x3e, 0x1f, 0x3e, 0x1f, 0xfe, 0x1f,
   0xfe, 0x1f, 0x00, 0x00 };
