#define max_hover_width 14
#define max_hover_height 14
static unsigned char max_hover_bits[] = {
   0x00, 0x00, 0xfe, 0x1f, 0xfe, 0x1f, 0xfe, 0x1f, 0x3e, 0x1c, 0x7e, 0x1c,
   0xee, 0x1c, 0xce, 0x1d, 0x8e, 0x1f, 0x0e, 0x1f, 0xfe, 0x1f, 0xfe, 0x1f,
   0xfe, 0x1f, 0x00, 0x00 };
