#define shade_width 14
#define shade_height 14
static unsigned char shade_bits[] = {
   0x00, 0x00, 0xfe, 0x1f, 0xfe, 0x1f, 0xfe, 0x1f, 0xfe, 0x1f, 0xfe, 0x1f,
   0xfe, 0x1f, 0xfe, 0x1f, 0xfe, 0x1f, 0xfe, 0x1f, 0xfe, 0x1f, 0xfe, 0x1f,
   0xfe, 0x1f, 0x00, 0x00 };
