#define shade_hover_width 14
#define shade_hover_height 14
static unsigned char shade_hover_bits[] = {
   0x00, 0x00, 0xfe, 0x1f, 0xfe, 0x1f, 0x3e, 0x1f, 0x1e, 0x1e, 0x0e, 0x1c,
   0x06, 0x18, 0xfe, 0x1f, 0x06, 0x18, 0x06, 0x18, 0xfe, 0x1f, 0xfe, 0x1f,
   0xfe, 0x1f, 0x00, 0x00 };
